<?xml version="1.0" standalone="no"?>
<!DOCTYPE svg PUBLIC "-//W3C//DTD SVG 20010904//EN"
 "http://www.w3.org/TR/2001/REC-SVG-20010904/DTD/svg10.dtd">
<svg version="1.0" xmlns="http://www.w3.org/2000/svg"
 width="225.000000pt" height="225.000000pt" viewBox="0 0 225.000000 225.000000"
 preserveAspectRatio="xMidYMid meet">
<metadata>
Created by potrace 1.11, written by Peter Selinger 2001-2013
</metadata>
<g transform="translate(0.000000,225.000000) scale(0.100000,-0.100000)"
fill="#000000" stroke="none">
<path d="M1061 2233 c-18 -9 -42 -31 -52 -47 -23 -37 -24 -110 -4 -146 8 -14
14 -36 15 -50 0 -24 -6 -27 -90 -47 -98 -23 -194 -64 -268 -114 -56 -38 -82
-31 -100 29 -29 97 -153 133 -225 66 -84 -78 -47 -215 64 -239 17 -4 35 -16
40 -29 9 -19 5 -31 -20 -68 -50 -74 -91 -170 -114 -268 -20 -84 -23 -90 -47
-90 -14 1 -36 7 -50 15 -36 20 -109 19 -146 -4 -34 -21 -64 -75 -64 -116 0
-41 30 -95 64 -116 37 -23 110 -24 146 -4 14 8 36 14 50 15 24 0 27 -6 47 -90
23 -99 64 -194 114 -266 26 -38 30 -50 21 -69 -6 -14 -23 -26 -41 -30 -88 -19
-135 -116 -96 -199 18 -37 79 -76 119 -76 65 0 128 50 141 111 4 18 16 35 30
41 19 9 31 5 69 -21 72 -50 167 -91 266 -114 84 -20 90 -23 90 -47 -1 -14 -7
-36 -15 -50 -20 -36 -19 -109 4 -146 21 -34 75 -64 116 -64 41 0 95 30 116 64
23 37 24 110 4 146 -8 14 -14 36 -15 50 0 24 6 27 90 47 98 23 194 64 268 114
56 38 82 31 100 -29 21 -69 99 -115 167 -98 14 4 42 21 61 39 37 34 52 84 40
131 -10 40 -55 85 -98 98 -60 18 -67 44 -29 100 50 74 91 170 114 268 20 84
23 90 47 90 14 -1 36 -7 50 -15 36 -20 109 -19 146 4 34 21 64 75 64 116 0 41
-30 95 -64 116 -37 23 -110 24 -146 4 -14 -8 -36 -14 -50 -15 -24 0 -27 6 -47
90 -23 99 -64 194 -114 266 -39 57 -31 84 29 102 43 13 88 58 98 98 16 62 -16
131 -73 159 -81 39 -179 -8 -198 -96 -4 -18 -16 -35 -30 -41 -19 -9 -31 -5
-69 21 -72 50 -167 91 -266 114 -84 20 -90 23 -90 47 1 14 7 36 15 50 8 14 14
45 15 70 0 106 -103 170 -199 123z m100 -64 c36 -19 41 -55 18 -109 -21 -49
-21 -114 -1 -147 4 -7 41 -19 82 -27 126 -24 234 -70 321 -138 20 -15 45 -28
56 -28 28 0 94 59 110 99 21 51 42 71 75 71 36 0 68 -32 68 -68 0 -33 -20 -54
-70 -75 -43 -17 -100 -80 -100 -108 0 -12 13 -38 28 -58 67 -86 114 -196 138
-321 8 -41 20 -78 27 -82 33 -20 98 -20 147 1 38 16 55 19 74 11 56 -21 58
-102 4 -128 -24 -11 -34 -10 -78 9 -49 21 -114 21 -147 1 -7 -4 -19 -41 -27
-82 -24 -125 -71 -235 -138 -321 -15 -20 -28 -46 -28 -58 0 -28 57 -91 100
-108 50 -21 70 -42 70 -75 0 -36 -32 -68 -68 -68 -33 0 -54 20 -75 70 -17 43
-80 100 -108 100 -12 0 -38 -13 -58 -28 -86 -67 -196 -114 -321 -138 -41 -8
-78 -20 -82 -27 -20 -33 -20 -98 1 -147 19 -44 20 -54 9 -78 -26 -54 -107 -52
-128 4 -8 19 -5 36 11 74 21 49 21 114 1 147 -4 7 -41 19 -82 27 -126 24 -234
70 -321 138 -20 15 -46 28 -58 28 -28 0 -91 -57 -108 -100 -21 -50 -42 -70
-75 -70 -36 0 -68 32 -68 68 0 33 20 54 71 75 40 16 99 82 99 110 0 11 -13 36
-28 56 -68 87 -114 195 -138 321 -8 41 -20 78 -27 82 -33 20 -98 20 -147 -1
-38 -16 -55 -19 -74 -11 -56 21 -58 102 -4 128 24 11 34 10 78 -9 49 -21 114
-21 147 -1 7 4 19 41 27 82 24 126 70 234 138 321 15 20 28 46 28 58 0 28 -57
91 -100 108 -50 21 -70 42 -70 75 0 36 32 68 68 68 33 0 54 -20 75 -70 17 -43
80 -100 108 -100 12 0 38 13 58 28 87 68 195 114 321 138 41 8 78 20 82 27 20
33 20 98 -1 147 -16 37 -19 55 -12 74 16 41 61 57 102 35z"/>
<path d="M1100 1815 c-25 -30 0 -49 76 -58 134 -14 249 -61 346 -140 72 -58
77 -61 93 -47 28 23 16 49 -47 99 -109 88 -241 141 -388 156 -55 6 -68 4 -80
-10z"/>
<path d="M1661 1496 c-9 -11 -10 -20 -1 -36 13 -24 38 -23 53 1 23 37 -25 68
-52 35z"/>
<path d="M607 1363 c-13 -12 -8 -248 5 -261 7 -7 43 -12 93 -12 50 0 86 5 93
12 13 13 16 47 6 72 -8 20 -53 21 -60 1 -4 -9 -19 -15 -40 -15 l-34 0 0 70 0
70 34 0 c21 0 36 -6 40 -15 7 -20 52 -19 60 1 10 25 7 59 -6 72 -13 13 -179
17 -191 5z"/>
<path d="M854 1358 c-12 -19 -9 -247 3 -259 5 -5 48 -9 99 -7 l89 3 0 135 0
135 -92 3 c-66 2 -94 -1 -99 -10z m136 -128 l0 -70 -40 0 -40 0 0 70 0 70 40
0 40 0 0 -70z"/>
<path d="M1102 1358 c-7 -7 -12 -43 -12 -93 l0 -81 48 -47 c26 -26 52 -47 58
-47 5 0 31 22 57 48 l47 48 0 81 c0 61 -4 84 -16 94 -31 26 -49 -1 -54 -86 -4
-58 -9 -81 -22 -88 -32 -21 -48 8 -48 87 0 69 -10 96 -35 96 -6 0 -16 -5 -23
-12z"/>
<path d="M1345 1358 c-3 -8 -4 -70 -3 -139 l3 -124 25 0 25 0 0 135 c0 132 0
135 -23 138 -12 2 -24 -3 -27 -10z"/>
<path d="M1452 1358 c-8 -8 -12 -51 -12 -128 0 -77 4 -120 12 -128 7 -7 38
-12 71 -12 54 0 62 3 93 34 32 32 34 38 34 100 0 77 -12 107 -50 129 -33 20
-130 23 -148 5z m126 -122 c3 -63 -4 -76 -45 -76 -22 0 -23 4 -23 71 l0 70 33
-3 c32 -3 32 -3 35 -62z"/>
<path d="M961 1006 c-8 -9 -11 -53 -9 -131 3 -97 6 -120 20 -128 12 -8 21 -7
32 2 13 11 16 36 16 130 0 115 -7 141 -36 141 -6 0 -17 -6 -23 -14z"/>
<path d="M1102 1008 c-13 -13 -17 -144 -4 -152 4 -2 36 -6 70 -8 51 -2 62 -6
62 -20 0 -14 -11 -18 -61 -20 -69 -3 -94 -23 -70 -52 17 -20 170 -23 189 -4
17 17 17 239 0 256 -7 7 -43 12 -93 12 -50 0 -86 -5 -93 -12z m128 -78 c0 -16
-7 -20 -35 -20 -28 0 -35 4 -35 20 0 16 7 20 35 20 28 0 35 -4 35 -20z"/>
<path d="M540 795 c-17 -20 -8 -49 16 -53 30 -4 48 21 34 47 -13 25 -33 27
-50 6z"/>
<path d="M632 678 c-24 -24 -11 -48 50 -97 109 -88 241 -141 388 -156 55 -6
68 -4 80 10 26 32 0 49 -91 61 -140 18 -232 57 -339 143 -69 56 -71 56 -88 39z"/>
</g>
</svg>
